<?xml version="1.0" encoding="iso-8859-1"?>
<!DOCTYPE svg PUBLIC "-//W3C//DTD SVG 1.1//EN" "http://www.w3.org/Graphics/SVG/1.1/DTD/svg11.dtd">
<svg 
 version="1.1" xmlns="http://www.w3.org/2000/svg" xmlns:xlink="http://www.w3.org/1999/xlink" x="0px" y="0px" width="512px"
	 height="512px" viewBox="0 0 512 512" enable-background="new 0 0 512 512" xml:space="preserve"
><g id="b75708d097f2188dff6617b0f00c8b7e"><g></g><path display="inline" d="M465.2,406.942l-9.585-54.351c0-0.004,0-0.008,0-0.011L401.573,46.114
		c-5.271-29.898-34.047-50.046-63.946-44.776L100.36,43.176c-0.83,0.147-1.623,0.377-2.438,0.559L97.9,43.611L46,52.761l9.583,54.35
		c0.002,0.003,0.002,0.007,0.002,0.011l21.083,119.568l42.541,241.26c5.035,28.545,32.505,47.782,61.05,42.751l242.195-42.707
		C450.998,462.958,470.231,435.487,465.2,406.942z M331.021,120.552l9.376,53.158l-5.25,0.92
		c-5.186-11.701-10.148-19.906-14.886-24.596c-4.732-4.697-10.651-8.1-17.753-10.213c-3.902-0.992-10.457-0.683-19.664,0.945
		l-14.688,2.591l26.665,151.252c1.768,10.022,3.429,16.193,4.978,18.508c1.549,2.307,4.118,4.107,7.716,5.397
		c3.59,1.29,8.186,1.441,13.777,0.457l6.473-1.146l0.956,5.426l-102.644,18.099l-0.956-5.423l6.472-1.14
		c5.71-1.01,10.081-2.8,13.114-5.38c2.318-1.851,3.888-4.528,4.711-8.039c0.64-2.516,0.094-8.672-1.635-18.468l-26.666-151.252
		l-14.167,2.501c-13.174,2.322-22.238,6.807-27.197,13.448c-7.019,9.29-10.357,21.357-10.019,36.203l-5.599,0.985l-9.373-53.158
		L331.021,120.552z M418.791,447.235l-242.192,42.704c-17.171,3.026-33.603-8.478-36.631-25.648l31.14-5.491l-0.021-0.126
		c0.827-0.107,1.651-0.161,2.481-0.309l237.27-41.838c12.668-2.235,23.554-8.715,31.531-17.685l2.074,11.759
		C447.469,427.771,435.965,444.206,418.791,447.235z"></path></g></svg>